<mxfile host="app.diagrams.net" modified="2022-03-21T13:29:31.249Z" agent="5.0 (Macintosh; Intel Mac OS X 10_15_7) AppleWebKit/605.1.15 (KHTML, like Gecko) Version/15.3 Safari/605.1.15" etag="gYsIIHvkxf6SKuPy_eEJ" version="17.1.3" type="github">
  <diagram id="LAHf234PuEYqPRMlwhuY" name="Page-1">
    <mxGraphModel dx="946" dy="513" grid="1" gridSize="10" guides="1" tooltips="1" connect="1" arrows="1" fold="1" page="1" pageScale="1" pageWidth="850" pageHeight="1100" math="0" shadow="0">
      <root>
        <mxCell id="0" />
        <mxCell id="1" parent="0" />
        <mxCell id="VuosMQj6SovbZuhu6wnh-3" style="edgeStyle=orthogonalEdgeStyle;rounded=0;orthogonalLoop=1;jettySize=auto;html=1;" edge="1" parent="1" source="o-A4uqS1qE9l4wg6-O4E-10" target="o-A4uqS1qE9l4wg6-O4E-23">
          <mxGeometry relative="1" as="geometry" />
        </mxCell>
        <mxCell id="o-A4uqS1qE9l4wg6-O4E-10" value="Pet" style="swimlane;fontStyle=1;align=center;verticalAlign=top;childLayout=stackLayout;horizontal=1;startSize=26;horizontalStack=0;resizeParent=1;resizeParentMax=0;resizeLast=0;collapsible=1;marginBottom=0;strokeWidth=1;" parent="1" vertex="1">
          <mxGeometry x="90" y="350" width="160" height="208" as="geometry" />
        </mxCell>
        <mxCell id="o-A4uqS1qE9l4wg6-O4E-11" value="- energy&#xa;- hunger&#xa;- loneliness" style="text;strokeColor=none;fillColor=none;align=left;verticalAlign=top;spacingLeft=4;spacingRight=4;overflow=hidden;rotatable=0;points=[[0,0.5],[1,0.5]];portConstraint=eastwest;" parent="o-A4uqS1qE9l4wg6-O4E-10" vertex="1">
          <mxGeometry y="26" width="160" height="74" as="geometry" />
        </mxCell>
        <mxCell id="o-A4uqS1qE9l4wg6-O4E-12" value="" style="line;strokeWidth=1;fillColor=none;align=left;verticalAlign=middle;spacingTop=-1;spacingLeft=3;spacingRight=3;rotatable=0;labelPosition=right;points=[];portConstraint=eastwest;" parent="o-A4uqS1qE9l4wg6-O4E-10" vertex="1">
          <mxGeometry y="100" width="160" height="8" as="geometry" />
        </mxCell>
        <mxCell id="o-A4uqS1qE9l4wg6-O4E-13" value="+ feed()&#xa;+ playWith()&#xa;+ status()&#xa;+ upskill()" style="text;strokeColor=none;fillColor=none;align=left;verticalAlign=top;spacingLeft=4;spacingRight=4;overflow=hidden;rotatable=0;points=[[0,0.5],[1,0.5]];portConstraint=eastwest;" parent="o-A4uqS1qE9l4wg6-O4E-10" vertex="1">
          <mxGeometry y="108" width="160" height="100" as="geometry" />
        </mxCell>
        <mxCell id="VuosMQj6SovbZuhu6wnh-5" style="edgeStyle=orthogonalEdgeStyle;rounded=0;orthogonalLoop=1;jettySize=auto;html=1;entryX=1;entryY=0.5;entryDx=0;entryDy=0;" edge="1" parent="1" source="o-A4uqS1qE9l4wg6-O4E-14" target="o-A4uqS1qE9l4wg6-O4E-23">
          <mxGeometry relative="1" as="geometry" />
        </mxCell>
        <mxCell id="o-A4uqS1qE9l4wg6-O4E-14" value="Timer" style="swimlane;fontStyle=1;align=center;verticalAlign=top;childLayout=stackLayout;horizontal=1;startSize=26;horizontalStack=0;resizeParent=1;resizeParentMax=0;resizeLast=0;collapsible=1;marginBottom=0;strokeWidth=1;" parent="1" vertex="1">
          <mxGeometry x="600" y="350" width="160" height="104" as="geometry" />
        </mxCell>
        <mxCell id="o-A4uqS1qE9l4wg6-O4E-15" value="- time : Timer&#xa;- button : JButton&#xa;" style="text;strokeColor=none;fillColor=none;align=left;verticalAlign=top;spacingLeft=4;spacingRight=4;overflow=hidden;rotatable=0;points=[[0,0.5],[1,0.5]];portConstraint=eastwest;" parent="o-A4uqS1qE9l4wg6-O4E-14" vertex="1">
          <mxGeometry y="26" width="160" height="44" as="geometry" />
        </mxCell>
        <mxCell id="o-A4uqS1qE9l4wg6-O4E-16" value="" style="line;strokeWidth=1;fillColor=none;align=left;verticalAlign=middle;spacingTop=-1;spacingLeft=3;spacingRight=3;rotatable=0;labelPosition=right;points=[];portConstraint=eastwest;" parent="o-A4uqS1qE9l4wg6-O4E-14" vertex="1">
          <mxGeometry y="70" width="160" height="8" as="geometry" />
        </mxCell>
        <mxCell id="o-A4uqS1qE9l4wg6-O4E-17" value="- pressButton()" style="text;strokeColor=none;fillColor=none;align=left;verticalAlign=top;spacingLeft=4;spacingRight=4;overflow=hidden;rotatable=0;points=[[0,0.5],[1,0.5]];portConstraint=eastwest;" parent="o-A4uqS1qE9l4wg6-O4E-14" vertex="1">
          <mxGeometry y="78" width="160" height="26" as="geometry" />
        </mxCell>
        <mxCell id="VuosMQj6SovbZuhu6wnh-4" style="edgeStyle=orthogonalEdgeStyle;rounded=0;orthogonalLoop=1;jettySize=auto;html=1;entryX=0.482;entryY=0.992;entryDx=0;entryDy=0;entryPerimeter=0;" edge="1" parent="1" source="o-A4uqS1qE9l4wg6-O4E-18" target="o-A4uqS1qE9l4wg6-O4E-23">
          <mxGeometry relative="1" as="geometry">
            <mxPoint x="410" y="270" as="targetPoint" />
          </mxGeometry>
        </mxCell>
        <mxCell id="o-A4uqS1qE9l4wg6-O4E-18" value="Advice" style="swimlane;fontStyle=1;align=center;verticalAlign=top;childLayout=stackLayout;horizontal=1;startSize=26;horizontalStack=0;resizeParent=1;resizeParentMax=0;resizeLast=0;collapsible=1;marginBottom=0;strokeWidth=1;" parent="1" vertex="1">
          <mxGeometry x="340" y="350" width="160" height="138" as="geometry" />
        </mxCell>
        <mxCell id="o-A4uqS1qE9l4wg6-O4E-19" value="- Frame : JFrame&#xa;- button : JButton&#xa;- background&#xa;&#xa;" style="text;strokeColor=none;fillColor=none;align=left;verticalAlign=top;spacingLeft=4;spacingRight=4;overflow=hidden;rotatable=0;points=[[0,0.5],[1,0.5]];portConstraint=eastwest;" parent="o-A4uqS1qE9l4wg6-O4E-18" vertex="1">
          <mxGeometry y="26" width="160" height="54" as="geometry" />
        </mxCell>
        <mxCell id="o-A4uqS1qE9l4wg6-O4E-20" value="" style="line;strokeWidth=1;fillColor=none;align=left;verticalAlign=middle;spacingTop=-1;spacingLeft=3;spacingRight=3;rotatable=0;labelPosition=right;points=[];portConstraint=eastwest;" parent="o-A4uqS1qE9l4wg6-O4E-18" vertex="1">
          <mxGeometry y="80" width="160" height="8" as="geometry" />
        </mxCell>
        <mxCell id="o-A4uqS1qE9l4wg6-O4E-21" value="- pressButton()" style="text;strokeColor=none;fillColor=none;align=left;verticalAlign=top;spacingLeft=4;spacingRight=4;overflow=hidden;rotatable=0;points=[[0,0.5],[1,0.5]];portConstraint=eastwest;" parent="o-A4uqS1qE9l4wg6-O4E-18" vertex="1">
          <mxGeometry y="88" width="160" height="50" as="geometry" />
        </mxCell>
        <mxCell id="o-A4uqS1qE9l4wg6-O4E-22" value="GUI&#xa;" style="swimlane;fontStyle=1;align=center;verticalAlign=top;childLayout=stackLayout;horizontal=1;startSize=26;horizontalStack=0;resizeParent=1;resizeParentMax=0;resizeLast=0;collapsible=1;marginBottom=0;strokeWidth=1;" parent="1" vertex="1">
          <mxGeometry x="310" y="90" width="220" height="150" as="geometry" />
        </mxCell>
        <mxCell id="o-A4uqS1qE9l4wg6-O4E-23" value="- Frame : JFrame&#xa;- panel : JPanel&#xa;- icon : ImageIcon&#xa;- button : JButton&#xa;- backgroudImage&#xa;- Time : Timer&#xa;- suggestionForEx : Advice&#xa;- pet : Pet" style="text;strokeColor=none;fillColor=none;align=left;verticalAlign=top;spacingLeft=4;spacingRight=4;overflow=hidden;rotatable=0;points=[[0,0.5],[1,0.5]];portConstraint=eastwest;" parent="o-A4uqS1qE9l4wg6-O4E-22" vertex="1">
          <mxGeometry y="26" width="220" height="124" as="geometry" />
        </mxCell>
      </root>
    </mxGraphModel>
  </diagram>
</mxfile>
